HIERARCHY
ROOT Hips
{
 OFFSET 0.000000 0.000000 0.000000
 CHANNELS 6 Xposition Yposition Zposition Yrotation Xrotation Zrotation
 JOINT Chest
 {
  OFFSET 0.000000 9.585900 0.002600
  CHANNELS 3 Yrotation Xrotation Zrotation
  JOINT Chest2
  {
   OFFSET 0.000000 9.601200 -0.005300
   CHANNELS 3 Yrotation Xrotation Zrotation
   JOINT Chest3
   {
    OFFSET 0.000000 9.561800 0.000000
    CHANNELS 3 Yrotation Xrotation Zrotation
    JOINT Chest4
    {
     OFFSET 0.000000 9.552100 0.000000
     CHANNELS 3 Yrotation Xrotation Zrotation
     JOINT Neck
     {
      OFFSET 0.000000 14.453000 0.000000
      CHANNELS 3 Yrotation Xrotation Zrotation
      JOINT Head
      {
       OFFSET 0.000000 8.936500 -0.011300
       CHANNELS 3 Yrotation Xrotation Zrotation
       End Site
       {
        OFFSET 0.000000 17.073600 -0.006000
       }
      }
     }
     JOINT RightCollar
     {
      OFFSET -2.921100 9.558500 0.000000
      CHANNELS 3 Yrotation Xrotation Zrotation
      JOINT RightShoulder
      {
       OFFSET -13.519700 0.000000 0.000000
       CHANNELS 3 Yrotation Xrotation Zrotation
       JOINT RightElbow
       {
        OFFSET 0.000000 -29.696600 0.000000
        CHANNELS 3 Yrotation Xrotation Zrotation
        JOINT RightWrist
        {
         OFFSET 0.000000 -24.004700 0.000000
         CHANNELS 3 Yrotation Xrotation Zrotation
         End Site
         {
          OFFSET 0.000000 -17.728500 0.000000
         }
        }
       }
      }
     }
     JOINT LeftCollar
     {
      OFFSET 2.921100 9.558500 0.000000
      CHANNELS 3 Yrotation Xrotation Zrotation
      JOINT LeftShoulder
      {
       OFFSET 13.519700 0.000000 0.000000
       CHANNELS 3 Yrotation Xrotation Zrotation
       JOINT LeftElbow
       {
        OFFSET 0.000000 -29.696600 0.000000
        CHANNELS 3 Yrotation Xrotation Zrotation
        JOINT LeftWrist
        {
         OFFSET 0.000000 -24.004700 0.000000
         CHANNELS 3 Yrotation Xrotation Zrotation
         End Site
         {
          OFFSET 0.000000 -17.728500 0.000000
         }
        }
       }
      }
     }
    }
   }
  }
 }
 JOINT RightHip
 {
  OFFSET -7.771700 -0.012900 -0.001300
  CHANNELS 3 Yrotation Xrotation Zrotation
  JOINT RightKnee
  {
   OFFSET 0.000000 -40.869800 0.001200
   CHANNELS 3 Yrotation Xrotation Zrotation
   JOINT RightAnkle
   {
    OFFSET 0.000000 -39.717900 0.002100
    CHANNELS 3 Yrotation Xrotation Zrotation
    JOINT RightToe
    {
     OFFSET 0.000000 -4.965400 11.033500
     CHANNELS 3 Yrotation Xrotation Zrotation
     End Site
     {
      OFFSET 0.000000 -1.423100 5.872300
     }
    }
   }
  }
 }
 JOINT LeftHip
 {
  OFFSET 7.771700 -0.012900 -0.001300
  CHANNELS 3 Yrotation Xrotation Zrotation
  JOINT LeftKnee
  {
   OFFSET 0.000000 -40.869800 0.001200
   CHANNELS 3 Yrotation Xrotation Zrotation
   JOINT LeftAnkle
   {
    OFFSET 0.000000 -39.717900 0.002100
    CHANNELS 3 Yrotation Xrotation Zrotation
    JOINT LeftToe
    {
     OFFSET 0.000000 -4.965400 11.033500
     CHANNELS 3 Yrotation Xrotation Zrotation
     End Site
     {
      OFFSET 0.000000 -1.423100 5.872300
     }
    }
   }
  }
 }
}
MOTION
Frames: 15
Frame Time: 0.008333
0.000000 85.388000 0.000000 0.000000 -5.767877 0.000000 0.000000 11.653817 0.000000 0.000000 -5.885947 0.000000 0.000000 -0.000000 0.000000 0.000000 -0.000000 0.000000 0.000000 12.528835 0.000000 0.000000 0.711642 0.000000 0.000000 -0.000000 0.000000 0.000000 0.000000 -90.000000 0.000000 -2.309062 0.000000 0.000000 2.309062 0.000000 0.000000 -0.000000 0.000000 0.000000 -0.000000 90.000000 0.000000 -2.309062 0.000000 0.000000 2.309062 0.000000 0.000000 8.520406 0.000000 0.000000 1.905762 0.000000 -0.000000 -4.658285 0.000000 0.000000 -0.000000 0.000000 0.000000 8.520406 0.000000 0.000000 1.905762 0.000000 -0.000000 -4.658285 0.000000 0.000000 -0.000000 0.000000
-71.597246 46.604733 -5.098770 176.921541 -29.936784 -3.000425 -0.306341 18.511823 1.429383 -0.037017 2.136884 0.212533 -0.096121 3.513528 0.337334 -0.179250 16.151112 1.560300 -9.631437 17.224167 2.930598 -18.697262 -2.748284 8.551147 0.776511 1.615628 -2.093889 4.221718 -7.271737 -14.998470 -41.683650 -62.452676 86.618908 -0.569752 4.734540 -22.831448 -0.032667 0.563838 2.340679 -6.517754 -3.421136 11.147630 60.756597 -76.810859 -95.813704 -0.624597 11.059163 14.374695 -4.853180 -56.954118 -6.451047 -155.409366 78.958604 -145.679523 -8.830442 -13.609366 -6.803383 0.014438 -0.320947 0.158046 0.795414 -58.936935 9.825391 -113.818216 82.418332 -118.429672 5.648510 -7.093831 7.005492 0.148300 0.278613 0.075985
-71.607302 46.606427 -5.103356 176.916903 -29.938272 -3.026664 -0.322403 18.501532 1.438993 -0.086108 2.108864 0.198733 -0.087307 3.511383 0.344880 -0.229523 16.115307 1.572564 -9.859836 17.377375 3.081626 -19.184301 -2.424379 8.897138 0.726580 1.727795 -2.122078 4.064606 -7.355250 -14.896392 -41.713755 -62.179099 86.471433 -0.736285 4.330601 -23.468182 -0.020345 0.637585 2.345360 -6.212369 -3.328897 10.969350 60.135188 -76.216047 -95.218776 -0.421577 11.063166 14.677062 -4.843082 -56.946944 -6.431931 -155.317069 78.951401 -145.598235 -8.785533 -13.594495 -6.792915 -0.005351 -0.314575 0.147022 0.805426 -58.939457 9.845721 -113.838403 82.404955 -118.437528 5.632553 -7.096836 7.007180 0.171751 0.276554 0.089363
-71.618970 46.607165 -5.107216 176.916514 -29.930039 -3.063789 -0.393818 18.456487 1.425732 -0.075346 2.109684 0.206212 -0.093376 3.502232 0.348093 -0.256735 16.095773 1.586677 -10.060236 17.534961 3.228435 -19.576946 -2.074037 9.199808 0.663280 1.822778 -2.139040 3.929595 -7.439176 -14.784807 -41.749638 -61.460707 86.343140 -1.133828 3.693580 -24.103436 -0.029811 0.690555 2.360289 -5.907968 -3.242334 10.789566 59.200986 -75.213704 -94.371803 -0.036469 10.997448 15.048046 -4.853799 -56.947156 -6.402196 -155.274655 78.951744 -145.549725 -8.771454 -13.585498 -6.800964 0.012206 -0.304286 0.116123 0.764853 -58.950429 9.902126 -113.866838 82.400049 -118.462798 5.608329 -7.098920 7.007700 0.180979 0.278312 0.094378
-71.627337 46.608805 -5.112995 176.882370 -29.936323 -3.118412 -0.432733 18.417803 1.446535 -0.062646 2.112086 0.213425 -0.099351 3.493695 0.351913 -0.283370 16.077237 1.603491 -10.214796 17.713143 3.359981 -19.876745 -1.695339 9.455756 0.610551 1.918956 -2.153874 3.809304 -7.532579 -14.662005 -41.772737 -60.388449 86.206895 -1.708418 2.847469 -24.815974 -0.039700 0.740674 2.377135 -5.615008 -3.167677 10.610047 58.122265 -73.834455 -93.423442 0.525854 10.818926 15.570442 -4.909715 -56.931647 -6.289703 -155.181998 78.952507 -145.463206 -8.747288 -13.567884 -6.806564 0.001887 -0.305294 0.108538 0.696826 -58.950156 10.030764 -113.939401 82.382373 -118.539594 5.605452 -7.111886 7.023870 0.164223 0.278021 0.089488
-71.638504 46.612204 -5.123377 176.823829 -29.973596 -3.154026 -0.440678 18.413250 1.469124 -0.066470 2.106839 0.215852 -0.081740 3.499832 0.357811 -0.335138 16.044648 1.620652 -10.324910 17.914258 3.475204 -20.086023 -1.284553 9.663372 0.566571 2.015342 -2.166523 3.700933 -7.638051 -14.529588 -41.795946 -59.091618 86.064988 -2.367759 1.867851 -25.609105 -0.049682 0.785119 2.394954 -5.340482 -3.107716 10.431192 57.064943 -72.156487 -92.517613 1.187900 10.505325 16.313747 -4.928651 -56.886803 -6.199589 -155.126523 78.954430 -145.406423 -8.742211 -13.558123 -6.821044 0.010162 -0.305464 0.108011 0.681763 -58.918861 10.137293 -114.099677 82.350393 -118.718220 5.624672 -7.145184 7.068765 0.137278 0.274383 0.078061
-71.650580 46.614056 -5.132284 176.779907 -30.001110 -3.199232 -0.465381 18.397395 1.495649 -0.027349 2.126923 0.224490 -0.061065 3.510116 0.361642 -0.432672 15.984258 1.638536 -10.394282 18.136417 3.573531 -20.211883 -0.845207 9.823684 0.525880 2.108988 -2.173630 3.601481 -7.749502 -14.396954 -41.829720 -57.694524 85.919896 -3.039868 0.822046 -26.426365 -0.064303 0.821284 2.411625 -5.091675 -3.062334 10.254347 56.058723 -70.286062 -91.649684 1.867562 10.049050 17.267184 -4.946120 -56.847025 -6.126564 -155.093272 78.959337 -145.355494 -8.740203 -13.555575 -6.835923 0.017308 -0.301390 0.105038 0.648397 -58.897104 10.243792 -114.196457 82.320381 -118.820734 5.639478 -7.173086 7.092687 0.129812 0.275725 0.077626
-71.662859 46.615486 -5.141484 176.733307 -30.034245 -3.244768 -0.487099 18.384648 1.526657 0.009702 2.148659 0.231017 -0.179283 3.434824 0.357975 -0.387363 16.013676 1.658064 -10.427277 18.372961 3.654487 -20.263467 -0.389069 9.938910 0.486970 2.198914 -2.173803 3.513383 -7.859266 -14.274570 -41.884509 -56.294856 85.764397 -3.697812 -0.234950 -27.214555 -0.085747 0.847138 2.425921 -4.881003 -3.029772 10.084302 55.097892 -68.337461 -90.780894 2.552126 9.443074 18.385885 -4.978637 -56.802430 -6.043695 -155.049676 78.962768 -145.298931 -8.733365 -13.552783 -6.850065 0.028053 -0.300104 0.109544 0.609505 -58.868572 10.358985 -114.270106 82.285666 -118.902388 5.657521 -7.204175 7.113083 0.140882 0.280289 0.077761
-71.676274 46.615406 -5.149061 176.703961 -30.060275 -3.291476 -0.524251 18.363953 1.553339 -0.055756 2.107913 0.226261 -0.145208 3.454086 0.366776 -0.390347 16.017221 1.675707 -10.428040 18.616873 3.717350 -20.249727 0.071403 10.010493 0.450212 2.287939 -2.167954 3.443358 -7.964562 -14.168732 -41.969322 -54.957591 85.597210 -4.324254 -1.259496 -27.937051 -0.110320 0.863632 2.440308 -4.721388 -3.008628 9.925016 54.257072 -66.409143 -89.983169 3.271574 8.723641 19.626974 -4.998562 -56.758079 -6.011093 -155.084236 78.974586 -145.303608 -8.687374 -13.557935 -6.862649 0.009031 -0.291058 0.097360 0.568036 -58.850326 10.453826 -114.353097 82.265721 -118.982237 5.658654 -7.216972 7.117547 0.159325 0.278171 0.085155
-71.689493 46.614474 -5.155690 176.677374 -30.087266 -3.335904 -0.521890 18.366874 1.596204 -0.116811 2.069953 0.225525 -0.088922 3.489216 0.368769 -0.402754 16.012625 1.684913 -10.438215 18.836018 3.799738 -20.181161 0.521955 10.038960 0.365315 2.348841 -2.131711 3.384593 -8.072092 -14.078198 -42.082143 -53.725180 85.427321 -4.884280 -2.205826 -28.582959 -0.183823 0.842992 2.483487 -4.616964 -2.999237 9.781397 53.589943 -64.561842 -89.307073 4.018018 7.943010 20.915786 -5.043346 -56.722791 -5.942337 -155.090562 78.978695 -145.302473 -8.679864 -13.556067 -6.872148 0.022827 -0.289655 0.087658 0.564306 -58.838114 10.507964 -114.491409 82.247536 -119.095014 5.650731 -7.223841 7.129080 0.159922 0.272191 0.080649
-71.701492 46.614471 -5.163998 176.633774 -30.136650 -3.369908 -0.557616 18.360506 1.624908 -0.066296 2.102343 0.225955 -0.092170 3.486280 0.368974 -0.490125 15.972123 1.727849 -10.369935 19.082470 3.806020 -20.067102 0.946052 10.029184 0.351175 2.458608 -2.148125 3.314294 -8.190280 -13.999077 -42.211655 -52.630772 85.269208 -5.352444 -3.025671 -29.156794 -0.182301 0.861809 2.472039 -4.564278 -3.004516 9.660652 53.080533 -62.839623 -88.727672 4.748229 7.141158 22.146238 -5.059543 -56.665570 -5.888121 -155.102750 78.984493 -145.302058 -8.673685 -13.552496 -6.875533 0.025917 -0.287200 0.063504 0.535881 -58.797378 10.597114 -114.598314 82.211909 -119.205691 5.675343 -7.248253 7.146258 0.153499 0.270027 0.077357
-71.711381 46.614018 -5.171096 176.582263 -30.189917 -3.401775 -0.583973 18.363948 1.663021 -0.017510 2.129898 0.221486 -0.191832 3.434774 0.394157 -0.481462 15.993374 1.748798 -10.284047 19.308454 3.794472 -19.916120 1.331464 9.990127 0.333943 2.564668 -2.168910 3.215204 -8.321269 -13.934052 -42.338331 -51.697733 85.129501 -5.726562 -3.700158 -29.662607 -0.178239 0.871781 2.453813 -4.550011 -3.030003 9.565676 52.688459 -61.274436 -88.219821 5.413535 6.352406 23.234169 -5.059382 -56.603234 -5.844040 -155.097473 78.988961 -145.272850 -8.651029 -13.549283 -6.885230 0.025595 -0.284585 0.056452 0.495444 -58.749941 10.702817 -114.705146 82.181140 -119.324771 5.707374 -7.280624 7.163368 0.134138 0.274031 0.072764
-71.715395 46.612522 -5.174946 176.489485 -30.237810 -3.436398 -0.547432 18.375531 1.734911 -0.019019 2.125097 0.223226 -0.215771 3.433544 0.408181 -0.442356 16.017313 1.740391 -10.220357 19.497689 3.836976 -19.733746 1.673510 9.928823 0.256124 2.641278 -2.127280 3.083580 -8.462280 -13.886443 -42.448735 -50.931160 85.005216 -6.009766 -4.227144 -30.087521 -0.230890 0.851835 2.495788 -4.504461 -3.033467 9.480161 52.407859 -59.930794 -87.852296 5.981043 5.609933 24.135004 -5.076783 -56.551875 -5.732812 -154.913195 78.984148 -145.067191 -8.625708 -13.549468 -6.899987 0.042166 -0.267603 0.052260 0.481427 -58.716597 10.830503 -114.879348 82.133365 -119.503072 5.785670 -7.310946 7.200744 0.115375 0.260523 0.051276
-71.723218 46.608277 -5.174034 176.463822 -30.258149 -3.470520 -0.581383 18.367610 1.774950 -0.024021 2.122348 0.222442 -0.215960 3.441892 0.420188 -0.474863 16.015243 1.785139 -10.105268 19.675239 3.801209 -19.520246 1.972860 9.847616 0.235024 2.736860 -2.143284 2.922628 -8.606881 -13.853938 -42.548451 -50.311163 84.893529 -6.202351 -4.609520 -30.403675 -0.223833 0.850224 2.478550 -4.525024 -3.123920 9.441169 52.183941 -58.729030 -87.465900 6.454289 4.952536 24.835170 -5.101093 -56.527938 -5.678635 -154.856889 78.989751 -144.994345 -8.646537 -13.537372 -6.878003 0.066821 -0.267779 0.029643 0.473694 -58.712517 10.878646 -115.003911 82.125066 -119.606712 5.784355 -7.318708 7.204533 0.120516 0.262612 0.052985
-71.727924 46.606214 -5.175338 176.409017 -30.307728 -3.494885 -0.587691 18.393738 1.824468 -0.076668 2.103817 0.240371 -0.168545 3.466638 0.411943 -0.501284 16.015862 1.832246 -9.976716 19.831102 3.754839 -19.278217 2.231950 9.746936 0.220895 2.826517 -2.158444 2.739508 -8.744412 -13.836930 -42.644672 -49.804200 84.797987 -6.312969 -4.866710 -30.598007 -0.212673 0.843046 2.459145 -4.517792 -3.233159 9.439724 52.035187 -57.713504 -87.166613 6.837263 4.408474 25.341156 -5.049379 -56.468689 -5.672180 -154.880336 79.004041 -144.970241 -8.634520 -13.528147 -6.869194 0.063631 -0.261846 0.013827 0.491131 -58.681103 10.930412 -115.153126 82.099211 -119.734743 5.819380 -7.336007 7.214286 0.112802 0.259224 0.051181
